<svg width="14" height="14" viewBox="0 0 14 14" fill="none" xmlns="http://www.w3.org/2000/svg">
<g clip-path="url(#clip0_1_52)">
<path d="M6.92702 0C3.10136 0 0 3.10137 0 6.92702C0 10.1755 2.2366 12.9014 5.25373 13.6501V9.04392H3.82538V6.92702H5.25373V6.01487C5.25373 3.65719 6.32077 2.56438 8.6355 2.56438C9.0744 2.56438 9.83166 2.65055 10.1414 2.73645V4.65523C9.97796 4.63806 9.69395 4.62947 9.34122 4.62947C8.20547 4.62947 7.76657 5.05977 7.76657 6.17835V6.92702H10.0292L9.64047 9.04392H7.76657V13.8033C11.1966 13.3891 13.8543 10.4687 13.8543 6.92702C13.854 3.10137 10.7527 0 6.92702 0Z" fill="#383838"/>
</g>
<defs>
<clipPath id="clip0_1_52">
<rect width="13.854" height="13.854" fill="white"/>
</clipPath>
</defs>
</svg>
