<svg width="14" height="14" viewBox="0 0 14 14" fill="none" xmlns="http://www.w3.org/2000/svg">
<g clip-path="url(#clip0_1_53)">
<path d="M6.92702 1.2474C8.77783 1.2474 8.99701 1.25552 9.72489 1.28799C10.4014 1.31776 10.7666 1.4314 11.0102 1.52611C11.3322 1.65058 11.5649 1.80211 11.8057 2.04293C12.0492 2.28646 12.198 2.51646 12.3225 2.83845C12.4172 3.08198 12.5309 3.44998 12.5606 4.12374C12.5931 4.85433 12.6012 5.0735 12.6012 6.92161C12.6012 8.77242 12.5931 8.9916 12.5606 9.71948C12.5309 10.3959 12.4172 10.7612 12.3225 11.0048C12.198 11.3268 12.0465 11.5595 11.8057 11.8003C11.5622 12.0438 11.3322 12.1926 11.0102 12.3171C10.7666 12.4118 10.3986 12.5255 9.72489 12.5552C8.9943 12.5877 8.77513 12.5958 6.92702 12.5958C5.07621 12.5958 4.85703 12.5877 4.12915 12.5552C3.45269 12.5255 3.08739 12.4118 2.84387 12.3171C2.52187 12.1926 2.28916 12.0411 2.04834 11.8003C1.80481 11.5568 1.65599 11.3268 1.53152 11.0048C1.43682 10.7612 1.32317 10.3932 1.2934 9.71948C1.26093 8.98889 1.25282 8.76972 1.25282 6.92161C1.25282 5.0708 1.26093 4.85162 1.2934 4.12374C1.32317 3.44727 1.43682 3.08198 1.53152 2.83845C1.65599 2.51646 1.80752 2.28375 2.04834 2.04293C2.29187 1.7994 2.52187 1.65058 2.84387 1.52611C3.08739 1.4314 3.45539 1.31776 4.12915 1.28799C4.85703 1.25552 5.07621 1.2474 6.92702 1.2474ZM6.92702 0C5.04644 0 4.81103 0.0081176 4.07233 0.040588C3.33633 0.0730584 2.83034 0.192117 2.39199 0.362586C1.93469 0.541173 1.54776 0.776584 1.16352 1.16352C0.776584 1.54776 0.541173 1.9347 0.362586 2.38928C0.192117 2.83034 0.0730584 3.33363 0.040588 4.06962C0.0081176 4.81103 0 5.04644 0 6.92702C0 8.8076 0.0081176 9.04301 0.040588 9.78171C0.0730584 10.5177 0.192117 11.0237 0.362586 11.4621C0.541173 11.9193 0.776584 12.3063 1.16352 12.6905C1.54776 13.0747 1.9347 13.3129 2.38928 13.4887C2.83034 13.6592 3.33363 13.7783 4.06962 13.8107C4.80833 13.8432 5.04374 13.8513 6.92431 13.8513C8.80489 13.8513 9.0403 13.8432 9.779 13.8107C10.515 13.7783 11.021 13.6592 11.4593 13.4887C11.9139 13.3129 12.3009 13.0747 12.6851 12.6905C13.0693 12.3063 13.3075 11.9193 13.4833 11.4648C13.6538 11.0237 13.7729 10.5204 13.8053 9.78442C13.8378 9.04571 13.8459 8.8103 13.8459 6.92973C13.8459 5.04915 13.8378 4.81374 13.8053 4.07504C13.7729 3.33904 13.6538 2.83304 13.4833 2.39469C13.3129 1.9347 13.0775 1.54776 12.6905 1.16352C12.3063 0.77929 11.9193 0.541173 11.4648 0.365292C11.0237 0.194822 10.5204 0.0757643 9.78442 0.0432939C9.04301 0.00811761 8.8076 0 6.92702 0Z" fill="#383838"/>
<path d="M6.92702 3.3688C4.96256 3.3688 3.3688 4.96256 3.3688 6.92702C3.3688 8.89148 4.96256 10.4852 6.92702 10.4852C8.89148 10.4852 10.4852 8.89148 10.4852 6.92702C10.4852 4.96256 8.89148 3.3688 6.92702 3.3688ZM6.92702 9.23512C5.65256 9.23512 4.61892 8.20148 4.61892 6.92702C4.61892 5.65256 5.65256 4.61892 6.92702 4.61892C8.20148 4.61892 9.23512 5.65256 9.23512 6.92702C9.23512 8.20148 8.20148 9.23512 6.92702 9.23512Z" fill="#383838"/>
<path d="M11.4566 3.22807C11.4566 3.68807 11.0832 4.05877 10.6259 4.05877C10.1659 4.05877 9.79523 3.68536 9.79523 3.22807C9.79523 2.76807 10.1686 2.39737 10.6259 2.39737C11.0832 2.39737 11.4566 2.77078 11.4566 3.22807Z" fill="#383838"/>
</g>
<defs>
<clipPath id="clip0_1_53">
<rect width="13.854" height="13.854" fill="white"/>
</clipPath>
</defs>
</svg>
