<svg width="132" height="41" viewBox="0 0 132 41" fill="none" xmlns="http://www.w3.org/2000/svg">
<path d="M9.93744 31.9009V12.8807L21.4995 4.06146C21.4995 4.06146 29.6626 5.84552 33.5981 6.69838C37.0547 7.44741 40.511 8.19721 43.9672 8.94649C44.7072 9.10701 46.2336 9.43321 46.3826 9.46645C46.3826 9.55535 46.3895 28.4781 46.3895 28.4781C46.3895 28.4781 36.2785 36.1997 36.2254 36.2366C36.2254 36.1964 36.2281 26.3207 36.2262 26.2684C35.7988 26.1756 35.3665 26.0862 34.8843 25.9816C34.8747 29.7765 34.8556 33.5051 34.8556 37.2953C26.5451 35.4932 18.2461 33.7025 9.93771 31.9009H9.93744ZM43.6518 10.0274C43.342 9.96168 23.2105 5.576 22.9127 5.51571C22.8913 5.82465 22.9234 13.9645 22.9288 14.5767C23.534 14.7081 34.3936 17.0585 34.3936 17.0585C34.3936 17.0585 43.5655 10.0967 43.6521 10.0274H43.6518ZM44.9672 10.6226C44.8761 10.686 34.8591 18.277 34.8591 18.277C34.8591 18.277 34.8781 24.7629 34.8781 24.8546C38.2642 25.5887 41.5801 26.3166 44.9592 27.0494C44.9592 21.5588 44.9672 16.1229 44.9672 10.6226ZM21.4917 14.2757C21.4917 11.3863 21.4906 8.53861 21.4906 5.67675C21.2074 5.8164 13.2155 11.9091 12.6701 12.3518C15.5882 12.9843 18.5583 13.6398 21.4917 14.2757Z" fill="white"/>
<path d="M62.7122 24.2416L59.8793 20.1293C59.4789 20.1535 59.1726 20.1654 58.9601 20.1654H55.358V24.2416H54.0635V11.6342H58.9601C60.5984 11.6342 61.8648 11.998 62.7591 12.7254C63.6532 13.453 64.1005 14.4839 64.1005 15.8186C64.1005 16.8647 63.8379 17.7366 63.3126 18.4339C62.7873 19.1314 62.0368 19.6184 61.0613 19.8948L64.2131 24.2416H62.7122ZM58.9601 19.0471C60.2106 19.0471 61.1738 18.7737 61.8492 18.2265C62.5246 17.6794 62.8623 16.8889 62.8623 15.8547C62.8623 14.8204 62.5246 14.0753 61.8492 13.546C61.1738 13.017 60.2106 12.7524 58.9601 12.7524H55.358V19.0471H58.9601Z" fill="white"/>
<path d="M77.4219 24.2416L75.8648 20.8868H68.5856L67.0472 24.2416H65.6589L71.5685 11.6342H72.9193L78.829 24.2416H77.4219ZM69.0921 19.7686H75.3582L72.2064 12.9508L69.0921 19.7686Z" fill="white"/>
<path d="M89.5691 12.4548C90.3131 13.014 90.6854 13.7867 90.6854 14.7725C90.6854 15.5182 90.4696 16.1433 90.0381 16.6483C89.6066 17.1533 89.0031 17.4842 88.2277 17.6403C89.1907 17.7606 89.9411 18.1033 90.479 18.6684C91.0167 19.2337 91.2857 19.949 91.2857 20.8147C91.2857 21.8969 90.8666 22.7387 90.0288 23.3398C89.1907 23.9412 88.0275 24.2416 86.5392 24.2416H80.986V11.6161H86.483C87.7962 11.6161 88.8248 11.8957 89.5691 12.4548ZM88.5842 16.6032C89.0969 16.2126 89.3534 15.6563 89.3534 14.9348C89.3534 14.2134 89.0969 13.6965 88.5842 13.3116C88.0712 12.9269 87.3521 12.7406 86.4267 12.7524H82.2805V17.1894H86.4267C87.3521 17.1894 88.0712 16.9941 88.5842 16.6032ZM89.0438 22.4831C89.6629 22.0564 89.9725 21.4581 89.9725 20.6885C89.9725 19.9188 89.6597 19.3419 89.0344 18.9209C88.4089 18.5001 87.5397 18.2896 86.4267 18.2896H82.2805V23.1234H86.4267C87.5523 23.1234 88.4247 22.91 89.0438 22.4831Z" fill="white"/>
<path d="M94.4727 11.6342H95.7672V24.2416H94.4727V11.6342Z" fill="white"/>
<path d="M110.421 24.2416H108.826L103.854 18.1093L101.19 20.8869V24.2416H99.8959V11.6161H101.19V19.2997L108.47 11.6161H110.046L104.774 17.1353L110.421 24.2416Z" fill="white"/>
<path d="M118.433 12.9418C117.795 12.7676 117.195 12.6802 116.632 12.6802C115.731 12.6802 115.009 12.8516 114.465 13.1943C113.921 13.537 113.649 14.0031 113.649 14.5921C113.649 15.1092 113.799 15.53 114.099 15.8546C114.399 16.1793 114.768 16.4349 115.206 16.6212C115.644 16.8077 116.244 17.0152 117.007 17.2434C117.895 17.496 118.611 17.7456 119.155 17.992C119.699 18.2385 120.162 18.5962 120.543 19.0651C120.925 19.5341 121.116 20.1535 121.116 20.9229C121.116 21.5964 120.919 22.1916 120.525 22.7085C120.131 23.2256 119.577 23.6255 118.864 23.9079C118.151 24.1905 117.332 24.3317 116.407 24.3317C115.481 24.3317 114.602 24.1576 113.733 23.8087C112.864 23.4601 112.117 22.9971 111.491 22.4199L112.092 21.3918C112.679 21.945 113.361 22.3779 114.137 22.6904C114.912 23.0032 115.675 23.1594 116.425 23.1594C117.426 23.1594 118.22 22.9641 118.808 22.5732C119.396 22.1826 119.69 21.6564 119.69 20.995C119.69 20.466 119.54 20.0332 119.24 19.6964C118.939 19.3599 118.57 19.1012 118.133 18.9208C117.695 18.7405 117.082 18.5302 116.294 18.2896C115.406 18.0252 114.693 17.7755 114.155 17.541C113.617 17.3066 113.161 16.958 112.786 16.4949C112.411 16.0322 112.223 15.428 112.223 14.6823C112.223 14.0451 112.411 13.486 112.786 13.0049C113.161 12.5241 113.686 12.1543 114.362 11.8957C115.037 11.6372 115.819 11.5079 116.707 11.5079C117.42 11.5079 118.136 11.6102 118.855 11.8145C119.574 12.0191 120.209 12.2896 120.759 12.6261L120.196 13.6903C119.658 13.3656 119.071 13.1162 118.433 12.9418Z" fill="white"/>
<path d="M54.8943 29.8432V32.8617H54.5288V29.8432H54.8943ZM58.0208 29.8432V32.8617H57.667L56.0222 30.4917H55.9927V32.8617H55.6272V29.8432H55.9809L57.6317 32.2191H57.6611V29.8432H58.0208ZM58.7522 32.8617V29.8432H60.5621V30.1674H59.1177V31.1873H60.4265V31.5116H59.1177V32.8617H58.7522ZM63.7349 31.3524C63.7349 31.6708 63.6775 31.9459 63.5625 32.1778C63.4475 32.4097 63.2898 32.5885 63.0894 32.7143C62.8889 32.84 62.66 32.9029 62.4026 32.9029C62.1451 32.9029 61.9162 32.84 61.7157 32.7143C61.5153 32.5885 61.3576 32.4097 61.2426 32.1778C61.1277 31.9459 61.0702 31.6708 61.0702 31.3524C61.0702 31.0341 61.1277 30.7589 61.2426 30.5271C61.3576 30.2952 61.5153 30.1163 61.7157 29.9906C61.9162 29.8648 62.1451 29.8019 62.4026 29.8019C62.66 29.8019 62.8889 29.8648 63.0894 29.9906C63.2898 30.1163 63.4475 30.2952 63.5625 30.5271C63.6775 30.7589 63.7349 31.0341 63.7349 31.3524ZM63.3812 31.3524C63.3812 31.0911 63.3375 30.8705 63.25 30.6907C63.1636 30.5108 63.0462 30.3748 62.8978 30.2824C62.7504 30.19 62.5853 30.1438 62.4026 30.1438C62.2198 30.1438 62.0542 30.19 61.9059 30.2824C61.7585 30.3748 61.6411 30.5108 61.5536 30.6907C61.4672 30.8705 61.4239 31.0911 61.4239 31.3524C61.4239 31.6138 61.4672 31.8344 61.5536 32.0142C61.6411 32.194 61.7585 32.3301 61.9059 32.4225C62.0542 32.5148 62.2198 32.561 62.4026 32.561C62.5853 32.561 62.7504 32.5148 62.8978 32.4225C63.0462 32.3301 63.1636 32.194 63.25 32.0142C63.3375 31.8344 63.3812 31.6138 63.3812 31.3524ZM64.3496 32.8617V29.8432H65.3695C65.6053 29.8432 65.7989 29.8835 65.9502 29.964C66.1015 30.0436 66.2135 30.1532 66.2862 30.2927C66.3589 30.4322 66.3953 30.5909 66.3953 30.7688C66.3953 30.9466 66.3589 31.1043 66.2862 31.2419C66.2135 31.3794 66.102 31.4875 65.9516 31.5661C65.8013 31.6438 65.6092 31.6826 65.3754 31.6826H64.55V31.3524H65.3636C65.5247 31.3524 65.6544 31.3288 65.7527 31.2817C65.8519 31.2345 65.9236 31.1677 65.9679 31.0812C66.0131 30.9938 66.0357 30.8896 66.0357 30.7688C66.0357 30.6479 66.0131 30.5423 65.9679 30.4519C65.9227 30.3615 65.8504 30.2917 65.7512 30.2426C65.652 30.1925 65.5208 30.1674 65.3577 30.1674H64.7151V32.8617H64.3496ZM65.7704 31.5057L66.5132 32.8617H66.0887L65.3577 31.5057H65.7704ZM67.0044 29.8432H67.4406L68.4664 32.3488H68.5018L69.5276 29.8432H69.9639V32.8617H69.622V30.5683H69.5925L68.6492 32.8617H68.3191L67.3758 30.5683H67.3463V32.8617H67.0044V29.8432ZM70.8206 32.8617H70.4374L71.5457 29.8432H71.923L73.0314 32.8617H72.6482L71.7462 30.3207H71.7226L70.8206 32.8617ZM70.9621 31.6826H72.5067V32.0068H70.9621V31.6826ZM72.9838 30.1674V29.8432H75.2477V30.1674H74.2985V32.8617H73.933V30.1674H72.9838ZM75.5524 29.8432H75.971L76.8082 31.2522H76.8435L77.6807 29.8432H78.0993L77.0086 31.6177V32.8617H76.6431V31.6177L75.5524 29.8432ZM78.572 32.8617V29.8432H78.9375V31.3406H78.9729L80.3289 29.8432H80.8064L79.5389 31.205L80.8064 32.8617H80.3642L79.3149 31.4585L78.9375 31.883V32.8617H78.572ZM81.4033 32.8617H81.0201L82.1285 29.8432H82.5058L83.6141 32.8617H83.2309L82.3289 30.3207H82.3053L81.4033 32.8617ZM81.5448 31.6826H83.0894V32.0068H81.5448V31.6826ZM86.0593 32.9029C85.8608 32.9029 85.6898 32.8666 85.5464 32.7939C85.4029 32.7212 85.2924 32.6214 85.2148 32.4947C85.1371 32.3679 85.0983 32.223 85.0983 32.0599C85.0983 31.9341 85.1248 31.8226 85.1779 31.7253C85.2319 31.6271 85.3061 31.5362 85.4005 31.4526C85.4958 31.3681 85.6053 31.2836 85.7291 31.1991L86.1654 30.8749C86.2509 30.8189 86.3192 30.7589 86.3703 30.6951C86.4223 30.6312 86.4484 30.5477 86.4484 30.4445C86.4484 30.3679 86.4145 30.2937 86.3467 30.222C86.2799 30.1502 86.1919 30.1144 86.0829 30.1144C86.0062 30.1144 85.9384 30.134 85.8795 30.1733C85.8215 30.2116 85.7758 30.2608 85.7424 30.3207C85.71 30.3797 85.6938 30.4406 85.6938 30.5035C85.6938 30.5742 85.7129 30.6459 85.7512 30.7187C85.7905 30.7904 85.8402 30.8641 85.9001 30.9397C85.961 31.0144 86.0239 31.0911 86.0888 31.1697L87.4742 32.8617H87.0556L85.9119 31.4821C85.8058 31.3544 85.7095 31.2384 85.623 31.1343C85.5365 31.0301 85.4678 30.9275 85.4167 30.8262C85.3656 30.725 85.34 30.6155 85.34 30.4976C85.34 30.362 85.37 30.2431 85.4299 30.1409C85.4909 30.0377 85.5759 29.9576 85.6849 29.9007C85.795 29.8427 85.9237 29.8137 86.0711 29.8137C86.2224 29.8137 86.3526 29.8432 86.4616 29.9021C86.5707 29.9601 86.6547 30.0372 86.7137 30.1335C86.7726 30.2288 86.8021 30.3325 86.8021 30.4445C86.8021 30.589 86.7662 30.7142 86.6945 30.8204C86.6228 30.9265 86.525 31.0252 86.4012 31.1166L85.7999 31.5647C85.6643 31.6649 85.5724 31.7622 85.5243 31.8565C85.4761 31.9508 85.452 32.0186 85.452 32.0599C85.452 32.1542 85.4766 32.2421 85.5257 32.3237C85.5749 32.4053 85.6441 32.4711 85.7336 32.5212C85.823 32.5713 85.9276 32.5964 86.0475 32.5964C86.1615 32.5964 86.2725 32.5723 86.3806 32.5241C86.4887 32.475 86.5864 32.4043 86.6739 32.3119C86.7623 32.2195 86.8321 32.1085 86.8832 31.9788C86.9353 31.8491 86.9613 31.7032 86.9613 31.5411H87.2973C87.2973 31.7415 87.2742 31.9051 87.2281 32.0319C87.1819 32.1586 87.1298 32.2579 87.0718 32.3296C87.0139 32.4013 86.9672 32.4549 86.9318 32.4902C86.92 32.505 86.9092 32.5197 86.8994 32.5345C86.8896 32.5492 86.8788 32.5639 86.867 32.5787C86.7697 32.6877 86.6469 32.7693 86.4985 32.8233C86.3501 32.8764 86.2037 32.9029 86.0593 32.9029ZM89.0737 32.8617V29.8432H90.8954V30.1674H89.4392V31.1873H90.8011V31.5116H89.4392V32.5374H90.919V32.8617H89.0737ZM91.5542 32.8617V29.8432H92.5742C92.81 29.8432 93.0035 29.8835 93.1549 29.964C93.3062 30.0436 93.4182 30.1532 93.4909 30.2927C93.5636 30.4322 93.6 30.5909 93.6 30.7688C93.6 30.9466 93.5636 31.1043 93.4909 31.2419C93.4182 31.3794 93.3067 31.4875 93.1563 31.5661C93.006 31.6438 92.8139 31.6826 92.58 31.6826H91.7547V31.3524H92.5683C92.7294 31.3524 92.8591 31.3288 92.9574 31.2817C93.0566 31.2345 93.1283 31.1677 93.1725 31.0812C93.2177 30.9938 93.2403 30.8896 93.2403 30.7688C93.2403 30.6479 93.2177 30.5423 93.1725 30.4519C93.1273 30.3615 93.0551 30.2917 92.9559 30.2426C92.8566 30.1925 92.7255 30.1674 92.5624 30.1674H91.9198V32.8617H91.5542ZM92.975 31.5057L93.7179 32.8617H93.2934L92.5624 31.5057H92.975ZM94.209 32.8617V29.8432H95.229C95.4658 29.8432 95.6593 29.8859 95.8097 29.9714C95.961 30.0559 96.073 30.1704 96.1457 30.3148C96.2184 30.4593 96.2548 30.6204 96.2548 30.7982C96.2548 30.9761 96.2184 31.1377 96.1457 31.2831C96.074 31.4286 95.9629 31.5445 95.8126 31.631C95.6623 31.7165 95.4697 31.7592 95.2349 31.7592H94.5038V31.435H95.2231C95.3852 31.435 95.5154 31.407 95.6136 31.3509C95.7119 31.2949 95.7831 31.2193 95.8274 31.124C95.8726 31.0277 95.8952 30.9191 95.8952 30.7982C95.8952 30.6774 95.8726 30.5693 95.8274 30.474C95.7831 30.3787 95.7114 30.304 95.6122 30.25C95.5129 30.1949 95.3813 30.1674 95.2172 30.1674H94.5746V32.8617H94.209ZM98.9424 32.8617H98.0109V29.8432H98.9836C99.2765 29.8432 99.527 29.9036 99.7353 30.0245C99.9436 30.1443 100.103 30.3168 100.214 30.5418C100.325 30.7658 100.381 31.0341 100.381 31.3465C100.381 31.661 100.325 31.9317 100.213 32.1586C100.101 32.3846 99.9377 32.5585 99.7235 32.6804C99.5093 32.8012 99.2489 32.8617 98.9424 32.8617ZM98.3764 32.5374H98.9188C99.1684 32.5374 99.3752 32.4893 99.5393 32.393C99.7034 32.2967 99.8257 32.1596 99.9063 31.9818C99.9869 31.8039 100.027 31.5922 100.027 31.3465C100.027 31.1028 99.9873 30.8931 99.9078 30.7172C99.8282 30.5403 99.7093 30.4047 99.5511 30.3104C99.3929 30.2151 99.1959 30.1674 98.9601 30.1674H98.3764V32.5374ZM100.994 32.8617V29.8432H101.36V32.5374H102.763V32.8617H100.994ZM103.643 32.8617H103.26L104.368 29.8432H104.745L105.854 32.8617H105.471L104.569 30.3207H104.545L103.643 32.8617ZM103.784 31.6826H105.329V32.0068H103.784V31.6826ZM107.491 32.8617V29.8432H109.301V30.1674H107.857V31.1873H109.166V31.5116H107.857V32.8617H107.491ZM110.293 29.8432V32.8617H109.927V29.8432H110.293ZM111.026 32.8617V29.8432H112.045C112.281 29.8432 112.475 29.8835 112.626 29.964C112.777 30.0436 112.889 30.1532 112.962 30.2927C113.035 30.4322 113.071 30.5909 113.071 30.7688C113.071 30.9466 113.035 31.1043 112.962 31.2419C112.889 31.3794 112.778 31.4875 112.628 31.5661C112.477 31.6438 112.285 31.6826 112.051 31.6826H111.226V31.3524H112.04C112.201 31.3524 112.33 31.3288 112.429 31.2817C112.528 31.2345 112.6 31.1677 112.644 31.0812C112.689 30.9938 112.712 30.8896 112.712 30.7688C112.712 30.6479 112.689 30.5423 112.644 30.4519C112.599 30.3615 112.526 30.2917 112.427 30.2426C112.328 30.1925 112.197 30.1674 112.034 30.1674H111.391V32.8617H111.026ZM112.446 31.5057L113.189 32.8617H112.765L112.034 31.5057H112.446ZM113.68 29.8432H114.117L115.142 32.3488H115.178L116.204 29.8432H116.64V32.8617H116.298V30.5683H116.268L115.325 32.8617H114.995L114.052 30.5683H114.022V32.8617H113.68V29.8432Z" fill="white"/>
</svg>
